<svg width="103" height="103" viewBox="0 0 103 103" fill="none" xmlns="http://www.w3.org/2000/svg">
<circle cx="51.5" cy="51.5" r="51.5" fill="#254D4D"/>
<path d="M59.5 24H33.5C31.7761 24 30.1228 24.5363 28.9038 25.4908C27.6848 26.4454 27 27.74 27 29.0899V69.8095C27 71.1594 27.6848 72.4541 28.9038 73.4086C30.1228 74.3631 31.7761 74.8994 33.5 74.8994H72.5C74.2239 74.8994 75.8772 74.3631 77.0962 73.4086C78.3151 72.4541 79 71.1594 79 69.8095V39.2698L59.5 24Z" stroke="white" stroke-width="2" stroke-linecap="round" stroke-linejoin="round"/>
<path d="M59.5001 24V39.2698H79.0001" stroke="white" stroke-width="2" stroke-linecap="round" stroke-linejoin="round"/>
<path d="M66 51.9947H40" stroke="white" stroke-width="2" stroke-linecap="round" stroke-linejoin="round"/>
<path d="M66 62.1746H40" stroke="white" stroke-width="2" stroke-linecap="round" stroke-linejoin="round"/>
<path d="M46.5 41.8148H43.25H40" stroke="white" stroke-width="2" stroke-linecap="round" stroke-linejoin="round"/>
</svg>
