<svg width="25" height="24" viewBox="0 0 25 24" fill="none" xmlns="http://www.w3.org/2000/svg">
<path d="M24.66 20.7495L19.7915 16.0766C19.5717 15.8656 19.2739 15.7485 18.9613 15.7485H18.1654C19.5131 14.0939 20.314 12.0129 20.314 9.74905C20.314 4.36364 15.7678 0 10.157 0C4.54623 0 0 4.36364 0 9.74905C0 15.1345 4.54623 19.4981 10.157 19.4981C12.5156 19.4981 14.6837 18.7294 16.4074 17.4358V18.1998C16.4074 18.4998 16.5295 18.7857 16.7493 18.9966L21.6178 23.6696C22.0768 24.1101 22.8191 24.1101 23.2732 23.6696L24.6551 22.3431C25.1141 21.9025 25.1141 21.1901 24.66 20.7495ZM10.157 15.7485C6.70459 15.7485 3.90654 13.0675 3.90654 9.74905C3.90654 6.43531 6.69971 3.74963 10.157 3.74963C13.6094 3.74963 16.4074 6.43062 16.4074 9.74905C16.4074 13.0628 13.6143 15.7485 10.157 15.7485Z" fill="#2F2E2E"/>
</svg>
